<?xml version="1.0" encoding="UTF-8" standalone="no"?>
<!DOCTYPE svg PUBLIC "-//W3C//DTD SVG 1.1//EN" "http://www.w3.org/Graphics/SVG/1.1/DTD/svg11.dtd">
<svg width="100%" height="100%" viewBox="0 0 32 32" version="1.1" xmlns="http://www.w3.org/2000/svg" xmlns:xlink="http://www.w3.org/1999/xlink" xml:space="preserve" xmlns:serif="http://www.serif.com/" style="fill-rule:evenodd;clip-rule:evenodd;stroke-linejoin:round;stroke-miterlimit:2;">
    <path d="M5.333,4L13.333,4L13.333,6.667L5.333,6.667L5.333,4ZM1.333,9.333L8,9.333L8,12L1.333,12L1.333,9.333ZM4,25.333L10.667,25.333L10.667,28L4,28L4,25.333ZM18.307,14.147C19.333,14.453 20.04,15.187 20.4,16.093L26.093,6.613C26.96,5.173 26.493,3.333 25.053,2.44C23.893,1.747 22.4,1.893 21.413,2.827L16.84,7.107C16.307,7.6 16,8.307 16,9.04L16,14.28C16.48,14.08 17.333,13.84 18.307,14.147M14.147,16.36C14.36,15.667 14.787,15.08 15.333,14.667L4.373,14.667C2.667,14.667 1.333,16 1.333,17.707C1.333,19.067 2.227,20.253 3.533,20.627L9.547,22.347C10.253,22.547 11.013,22.453 11.653,22.067L15.24,19.92C14.184,19.07 13.749,17.656 14.147,16.36M29.613,24.813L26.573,19.333C26.205,18.701 25.601,18.24 24.893,18.053L20.667,16.987C20.667,17.413 20.667,17.867 20.52,18.307C20.101,19.71 18.797,20.675 17.333,20.667C16.52,20.667 16,20.373 16,20.373L16,28C14.533,28 13.333,29.2 13.333,30.667L21.333,30.667C21.333,29.2 20.133,28 18.667,28L18.667,22.293L24.813,28.44C26,29.627 27.92,29.627 29.107,28.44C30.067,27.48 30.28,26 29.613,24.813M16.747,19.24C17.8,19.56 18.92,18.973 19.24,17.907C19.56,16.853 18.973,15.733 17.907,15.413C16.853,15.093 15.733,15.68 15.413,16.747C15.093,17.8 15.693,18.92 16.747,19.24" style="fill:rgb(154,154,154);fill-rule:nonzero;"/>
</svg>
